<svg width="36" height="36" viewBox="0 0 36 36" fill="none" xmlns="http://www.w3.org/2000/svg">
<path d="M16.5 35.5V20.05H15.5C13.3667 20.05 11.3583 19.6417 9.475 18.825C7.59167 18.0083 5.91667 16.85 4.45 15.35C2.98333 13.85 1.875 12.1167 1.125 10.15C0.375 8.18333 0 6.13333 0 4V0H3.9161C5.97203 0 7.95 0.408333 9.85 1.225C11.75 2.04167 13.45 3.2 14.95 4.7C16.05 5.83333 16.9583 7.1 17.675 8.5C18.3917 9.9 18.9 11.3833 19.2 12.95C19.4549 12.5533 19.7353 12.1708 20.0412 11.8025C20.3471 11.4342 20.6667 11.0667 21 10.7C22.5 9.2 24.2 8.04167 26.1 7.225C28 6.40833 29.9945 6 32.0834 6H36V10C36 12.1333 35.6004 14.1833 34.8011 16.15C34.0018 18.1167 32.8681 19.85 31.4 21.35C29.9 22.85 28.2073 24 26.322 24.8C24.4366 25.6 22.4626 26 20.4 26H19.5V35.5H16.5ZM16.55 17C16.55 14.9667 16.2167 13.075 15.55 11.325C14.8833 9.575 13.9667 8.09167 12.8 6.875C11.6333 5.65833 10.2 4.70833 8.5 4.025C6.8 3.34167 4.96667 3 3 3C3 5.1 3.30833 7.025 3.925 8.775C4.54167 10.525 5.43333 12.0167 6.6 13.25C8 14.75 9.50833 15.75 11.125 16.25C12.7417 16.75 14.55 17 16.55 17ZM19.5 23C21.5 23 23.35 22.675 25.05 22.025C26.75 21.375 28.1833 20.4417 29.35 19.225C30.5167 18.0083 31.4167 16.525 32.05 14.775C32.6833 13.025 33 11.1 33 9C31 9 29.15 9.34167 27.45 10.025C25.75 10.7083 24.3167 11.65 23.15 12.85C21.7167 14.35 20.75 15.9167 20.25 17.55C19.75 19.1833 19.5 21 19.5 23Z" fill="#37BA2B"/>
</svg>
